<svg width="20" height="20" viewBox="0 0 20 20" fill="none" xmlns="http://www.w3.org/2000/svg">
<g id="Iconsax/Linear/searchnormal1" clip-path="url(#clip0_9_129)">
<path id="Vector" d="M18.3334 18.3333L16.6667 16.6667M9.58335 17.5C10.623 17.5 11.6524 17.2952 12.6129 16.8974C13.5734 16.4995 14.4462 15.9164 15.1813 15.1813C15.9164 14.4461 16.4995 13.5734 16.8974 12.6129C17.2952 11.6524 17.5 10.623 17.5 9.58332C17.5 8.54369 17.2952 7.51424 16.8974 6.55375C16.4995 5.59325 15.9164 4.72052 15.1813 3.98539C14.4462 3.25026 13.5734 2.66713 12.6129 2.26928C11.6524 1.87143 10.623 1.66666 9.58335 1.66666C7.48372 1.66666 5.47009 2.50073 3.98542 3.98539C2.50076 5.47006 1.66669 7.48369 1.66669 9.58332C1.66669 11.683 2.50076 13.6966 3.98542 15.1813C5.47009 16.6659 7.48372 17.5 9.58335 17.5Z" stroke="#8C55FF" stroke-width="1.5" stroke-linecap="round" stroke-linejoin="round"/>
</g>
<defs>
<clipPath id="clip0_9_129">
<rect width="20" height="20" fill="white"/>
</clipPath>
</defs>
</svg>
