<svg width="23" height="22" viewBox="0 0 23 22" fill="none" xmlns="http://www.w3.org/2000/svg">
<g id="Iconsax/Linear/tagcross">
<path id="Vector" d="M9.85165 18.5625H16.2917C18.9367 18.5625 21.0833 16.5092 21.0833 13.9792V8.02083C21.0833 5.49083 18.9367 3.4375 16.2917 3.4375H9.85165C8.5004 3.4375 7.21624 3.97833 6.30582 4.94083L2.9229 8.4975C2.27097 9.18177 1.90961 10.0742 1.90961 11C1.90961 11.9258 2.27097 12.8182 2.9229 13.5025L6.30582 17.0592C6.75384 17.5333 7.30098 17.9121 7.91181 18.1711C8.52263 18.43 9.18351 18.5634 9.85165 18.5625Z" stroke="#8C55FF" stroke-width="1.5" stroke-linecap="round" stroke-linejoin="round"/>
<path id="Vector_2" d="M15.3333 13.2642L10.5992 8.73584M10.5992 13.2642L15.3333 8.73584" stroke="#8C55FF" stroke-width="1.5" stroke-linecap="round"/>
</g>
</svg>
